<svg width="20" height="20" viewBox="0 0 20 20" fill="none" xmlns="http://www.w3.org/2000/svg">
<path fill-rule="evenodd" clip-rule="evenodd" d="M19.2635 14.0579C18.924 13.4639 18.2734 12.7001 17.3399 11.8232L17.3117 11.7949H17.2834C16.8591 11.3706 16.5762 11.0877 16.463 10.9463C16.265 10.6917 16.2085 10.4089 16.3216 10.126C16.4065 9.92798 16.7176 9.47539 17.2268 8.7965C17.5097 8.45706 17.736 8.17419 17.8774 7.94789C19.0654 6.39211 19.5746 5.40206 19.4049 4.97776L19.3483 4.86461C19.2917 4.80803 19.2069 4.75146 19.0372 4.69489C18.8674 4.6666 18.6411 4.63831 18.3866 4.6666L15.473 4.69489C15.4164 4.69489 15.3598 4.69489 15.275 4.69489L15.1336 4.72317L15.077 4.75146L15.0487 4.77975C15.0204 4.80803 14.9638 4.83632 14.9355 4.89289C14.9073 4.94947 14.8507 5.00604 14.8224 5.06262C14.5112 5.88294 14.1435 6.64669 13.7475 7.35386C13.4929 7.77817 13.2666 8.11761 13.0686 8.42877C12.8423 8.73993 12.6726 8.96622 12.5311 9.10766C12.3897 9.24909 12.2766 9.39053 12.1634 9.47539C12.0503 9.56025 11.9371 9.58854 11.8805 9.58854C11.824 9.56025 11.7674 9.56025 11.7108 9.53196C11.626 9.47539 11.5411 9.39053 11.4845 9.27738C11.428 9.19252 11.3997 9.05108 11.3714 8.88136C11.3431 8.73993 11.3431 8.59849 11.3431 8.48534C11.3431 8.3722 11.3431 8.20247 11.3431 8.00447C11.3431 7.77817 11.3431 7.63673 11.3431 7.58016C11.3431 7.32558 11.3714 7.04271 11.3714 6.73155C11.3714 6.44868 11.3997 6.1941 11.3997 6.02437C11.3997 5.85465 11.3997 5.65664 11.3997 5.45863C11.3997 5.26063 11.3997 5.11919 11.3714 5.00604C11.3431 4.89289 11.3148 4.77975 11.2582 4.69489C11.2017 4.58174 11.1451 4.49688 11.0602 4.4403C10.9754 4.38373 10.8622 4.32715 10.7208 4.29887C10.353 4.21401 9.90045 4.18572 9.363 4.18572C8.09009 4.15743 7.29805 4.24229 6.93032 4.41202C6.78888 4.49688 6.64745 4.58174 6.5343 4.72317C6.42115 4.86461 6.42115 4.94947 6.50601 4.94947C6.90203 5.03433 7.1849 5.17576 7.35462 5.40206L7.4112 5.51521C7.46777 5.60007 7.52434 5.76979 7.55263 5.99609C7.60921 6.1941 7.63749 6.44868 7.63749 6.73155C7.69407 7.21243 7.69407 7.63673 7.63749 7.97618C7.60921 8.34391 7.58092 8.59849 7.55263 8.7965C7.52434 8.99451 7.46777 9.16423 7.4112 9.27738C7.35462 9.39053 7.32634 9.47539 7.29805 9.50368C7.26976 9.53196 7.26976 9.56025 7.24147 9.56025C7.15661 9.58854 7.07175 9.61682 6.9586 9.61682C6.87374 9.61682 6.7606 9.56025 6.61916 9.47539C6.50601 9.36224 6.36458 9.24909 6.19486 9.07937C6.05342 8.90965 5.91198 8.68335 5.71398 8.3722C5.54425 8.08933 5.34624 7.7216 5.14824 7.32558L4.97851 7.04271C4.89365 6.8447 4.75222 6.56183 4.5825 6.22238C4.38449 5.85465 4.24305 5.51521 4.10162 5.17576C4.04504 5.03433 3.96018 4.92118 3.87532 4.83632L3.81875 4.80803C3.79046 4.77975 3.73389 4.75146 3.64902 4.72317C3.56416 4.69489 3.50759 4.6666 3.42273 4.6666H0.650601C0.367731 4.6666 0.169722 4.75146 0.084861 4.86461L0.028287 4.92118C0 4.97776 0 5.00604 0 5.0909C0 5.17576 0.028287 5.26063 0.056574 5.37377C0.452592 6.30724 0.905184 7.24072 1.38606 8.11761C1.86694 8.99451 2.26296 9.70169 2.63069 10.2674C2.97014 10.8049 3.33787 11.314 3.7056 11.7949C4.04504 12.2475 4.29963 12.5587 4.41277 12.7001C4.52592 12.8415 4.63907 12.9264 4.69564 13.0113L4.95023 13.2376C5.11995 13.4073 5.34624 13.6053 5.6574 13.8316C5.96856 14.0579 6.308 14.2842 6.70402 14.5105C7.07175 14.7085 7.52434 14.9065 8.03351 15.0479C8.54268 15.1611 9.02356 15.2177 9.50444 15.1894H10.6642C10.9188 15.1894 11.0885 15.1045 11.2017 14.9914L11.2582 14.9348C11.2865 14.8782 11.3148 14.8216 11.3148 14.7368C11.3431 14.6519 11.3714 14.5671 11.3714 14.4539C11.3431 14.171 11.3714 13.9165 11.428 13.6902C11.4845 13.4356 11.5411 13.2658 11.5977 13.1527C11.6542 13.0396 11.7391 12.9264 11.824 12.8415C11.9088 12.785 11.9654 12.7284 11.9937 12.7001C12.022 12.7001 12.0503 12.6718 12.0786 12.6718C12.22 12.6152 12.418 12.6718 12.6443 12.8415C12.8706 12.983 13.0686 13.181 13.2666 13.4073C13.4646 13.6619 13.6909 13.9165 13.9455 14.1993C14.2284 14.4822 14.4547 14.7085 14.6527 14.8499L14.8507 14.9631C14.9921 15.0479 15.1618 15.1328 15.3881 15.1894C15.6144 15.2459 15.7842 15.2742 15.9539 15.2459L18.5563 15.1894C18.8109 15.1894 19.0089 15.1611 19.1503 15.0762C19.2917 14.9914 19.3766 14.9065 19.4049 14.7933C19.4332 14.7085 19.4332 14.5953 19.4049 14.4539C19.3766 14.3125 19.3483 14.2276 19.32 14.1993C19.32 14.1427 19.2917 14.0862 19.2635 14.0579Z" fill="white"/>
</svg>
