<svg width="22" height="22" viewBox="0 0 22 22" fill="none" xmlns="http://www.w3.org/2000/svg">
<path fill-rule="evenodd" clip-rule="evenodd" d="M19.4125 6.53218C19.2276 5.60781 18.4265 4.92994 17.5021 4.71425C16.1155 4.43694 13.5273 4.22125 10.7234 4.22125C7.95027 4.22125 5.33122 4.43694 3.91385 4.71425C2.98948 4.92994 2.18836 5.57699 2.00349 6.53218C1.84942 7.61061 1.66455 9.0896 1.66455 11C1.66455 12.8795 1.84942 14.3585 2.06511 15.4369C2.21917 16.3613 3.02029 17.0392 3.97548 17.2549C5.45447 17.5322 7.98108 17.7479 10.785 17.7479C13.5581 17.7479 16.1155 17.5322 17.5945 17.2549C18.5189 17.0392 19.32 16.3921 19.5049 15.4369C19.659 14.3585 19.8746 12.8487 19.9054 11C19.813 9.0896 19.6281 7.61061 19.4125 6.53218ZM8.44326 13.9579V8.01117L13.6197 11L8.44326 13.9579Z" fill="white"/>
</svg>
