<?xml version="1.0" encoding="UTF-8"?>
<svg width="168px" height="31px" viewBox="0 0 168 31" version="1.1" xmlns="http://www.w3.org/2000/svg" xmlns:xlink="http://www.w3.org/1999/xlink">
    <g id="Page-1" stroke="none" stroke-width="1" fill="none" fill-rule="evenodd">
        <g id="desktop_logoff" transform="translate(-80.000000, -40.000000)">
            <g id="header" transform="translate(56.000000, 0.000000)">
                <g id="CB_logo_short" transform="translate(24.000000, 40.000000)">
                    <polygon id="Path_124" fill="#FCEE21" points="99 27 87.2773952 0 0 4.61849986e-17 0 27"></polygon>
                    <path d="M5,13 C5,17.7381563 8.73504495,21 13.5830437,21 C17.8745656,21 20.0227764,18.5919275 20.8942402,16.4951257 L16.7644116,14.6309218 C16.2740608,15.9684502 14.9591916,16.8460576 13.5060469,16.8057123 C12.4981982,16.794358 11.538618,16.3820319 10.8487228,15.6638755 C10.1588276,14.9457191 9.79821673,13.9837731 9.85009867,13 C9.79821673,12.0162269 10.1588276,11.0542809 10.8487228,10.3361245 C11.538618,9.61796808 12.4981982,9.20564201 13.5060469,9.19428767 C14.9574099,9.15604255 16.2697238,10.0332636 16.7595118,11.3690782 L20.8893404,9.50487429 C19.9401798,7.40807252 17.8745656,5 13.5830437,5 C8.73504495,5 5,8.18453908 5,13 Z M74.6163101,15.5633658 L76.2850409,15.5633658 L78.5102485,20.6894134 L83.9140242,20.6894134 L81.0532429,15.2527792 C82.9300989,14.4488091 84.1010846,12.5926131 83.9931209,10.5926116 C83.9931209,7.71934325 82.0066034,5.31127074 78.3506551,5.31127074 L69.8481081,5.31127074 L69.8481081,20.6900975 L74.6163101,20.6900975 L74.6163101,15.5633658 Z M54.5894415,5.23328202 L54.5894415,20.6114247 L66.5897433,20.6114247 L66.5897433,16.8830169 L59.4374402,16.8830169 L59.4374402,14.6309218 L66.4308499,14.6309218 L66.4308499,11.0584915 L59.4374402,11.0584915 L59.4374402,8.96100564 L66.5897433,8.96100564 L66.5897433,5.23259791 L54.5894415,5.23328202 Z M37.7418408,5.23328202 L37.7418408,20.6114247 L47.4371384,20.6114247 C50.6157064,20.6114247 52.1269437,18.5919275 52.1269437,16.417137 C52.2323473,14.590077 50.9440765,12.9664624 49.1072691,12.6114247 C50.7548224,12.2391982 51.8929306,10.7669568 51.8091569,9.11629896 C51.8091569,7.3300838 50.3784163,5.15529331 47.1193516,5.15529331 L37.7397409,5.15529331 L37.7418408,5.23328202 Z M36.7884804,5.23328202 L31.3847047,5.23328202 L28.5239235,10.4373183 L25.5840455,5.23328202 L20.0997732,5.23328202 L25.9795291,14.631606 L25.9795291,20.6900975 L30.8289278,20.6900975 L30.8289278,14.6309218 L36.7884804,5.23328202 Z M45.8482043,11.1364802 L42.4309462,11.1364802 L42.4309462,8.80571233 L45.8482043,8.80571233 C46.4831534,8.82837179 46.980135,9.34802333 46.9604582,9.9687019 C46.9845645,10.2709118 46.8779703,10.5691627 46.6665788,10.790977 C46.4551874,11.0127912 46.1583513,11.137862 45.8482043,11.1357961 L45.8482043,11.1364802 Z M77.4770914,9.03625791 C77.8776407,9.0155757 78.2701836,9.15129875 78.5683183,9.41355336 C78.8664529,9.67580796 79.045743,10.0430986 79.0667254,10.4345818 C79.0585082,10.8304788 78.8829871,11.2053928 78.581842,11.4702955 C78.2806969,11.7351983 77.8807925,11.8664582 77.4770914,11.8329058 L74.6163101,11.8329058 L74.6163101,9.03625791 L77.4770914,9.03625791 Z M46.0070977,17.116299 L42.4309462,17.116299 L42.4309462,14.6309218 L46.0070977,14.6309218 C46.6977052,14.6467595 47.2491098,15.1984645 47.2491098,15.8736104 C47.2491098,16.5487563 46.6977052,17.1004613 46.0070977,17.116299 Z" id="Path_125" fill="#000000" fill-rule="nonzero"></path>
                    <polygon id="Path_126" fill="#000000" points="94 5 105.909766 31 156.090234 31 168 5"></polygon>
                    <path d="M146.476279,13.8790036 L141.714419,13.8790036 L141.714419,10 L156,10 L156,13.8790036 L151.23814,13.8790036 L151.23814,26 L146.476279,26 L146.476279,13.8790036 Z M111,10 L120.367136,10 C123.621167,10 125.050704,12.1814947 125.050704,14.1209964 C125.134366,15.8383268 123.997772,17.3700341 122.352409,17.7572954 C124.159496,18.1163406 125.439728,19.7630873 125.368068,21.6362989 C125.368068,23.8989324 123.860239,26 120.76489,26 L111.079691,26 L111.079691,10 L111,10 Z M119.095582,16.141637 C119.743582,16.0776885 120.230478,15.5108116 120.206357,14.8483986 C120.193388,14.2293379 119.703593,13.7306418 119.095582,13.7174377 L115.683568,13.7174377 L115.683568,16.141637 L119.095582,16.141637 Z M119.254264,22.3637011 C119.715025,22.3747091 120.145489,22.130723 120.379047,21.7261762 C120.612605,21.3216294 120.612605,20.8200076 120.379047,20.4154608 C120.145489,20.010914 119.715025,19.7669279 119.254264,19.7779359 L115.683568,19.7779359 L115.683568,22.3637011 L119.254963,22.3637011 L119.254264,22.3637011 Z M127.746202,10 L139.650853,10 L139.650853,13.8790036 L132.508062,13.8790036 L132.508062,16.0604982 L139.492171,16.0604982 L139.492171,19.7779359 L132.508062,19.7779359 L132.508062,22.1209964 L139.650853,22.1209964 L139.650853,26 L127.746202,26 L127.746202,10 Z" id="Path_127" fill="#FCEE21" fill-rule="nonzero"></path>
                </g>
            </g>
        </g>
    </g>
</svg>