<svg width="23" height="23" viewBox="0 0 23 23" fill="none" xmlns="http://www.w3.org/2000/svg">
<path d="M23 0C18.7234 0.564732 14.4366 1.12946 10.1652 1.6942C5.44196 2.33594 1.78147 6.14531 1.48884 10.9353C1.31942 13.7846 2.41295 16.5569 4.45625 18.5438L0 23C4.27656 22.4353 8.54799 21.8705 12.8246 21.3058C17.5375 20.6641 21.2083 16.8496 21.4855 12.075C21.6652 9.22567 20.5614 6.45335 18.5232 4.46652L23 0ZM18.9083 11.9261C18.6926 16.0076 15.1092 19.0725 11.0636 18.8312C6.98214 18.59 3.84018 15.1862 4.06607 11.079C4.2971 7.01295 7.88058 3.92746 11.921 4.17388C15.9922 4.41518 19.1342 7.81897 18.9083 11.9261Z" fill="#FCEE21"/>
</svg>
