<svg width="19" height="19" viewBox="0 0 19 19" fill="none" xmlns="http://www.w3.org/2000/svg">
<path d="M5.432 16.2839C5.432 17.784 4.216 19 2.71598 19C1.21596 19 0 17.784 0 16.2839C0 14.7839 1.216 13.5679 2.71602 13.5679C4.21605 13.5679 5.432 14.784 5.432 16.2839ZM12.8819 18.2878C12.5276 11.7312 7.27581 6.47281 0.712118 6.11812C0.324696 6.09717 0 6.40847 0 6.79644V8.83507C0 9.19196 0.275245 9.49125 0.631368 9.51441C5.37424 9.82333 9.17597 13.6156 9.48553 18.3685C9.50873 18.7247 9.80802 18.9999 10.1649 18.9999H12.2035C12.5915 19 12.9028 18.6753 12.8819 18.2878ZM18.9996 18.3001C18.6436 8.38361 10.6648 0.358174 0.699903 0.000440682C0.316935 -0.0133003 0 0.296085 0 0.679264V2.71786C0 3.08365 0.289877 3.38137 0.655372 3.39638C8.7634 3.72884 15.2712 10.2379 15.6037 18.3446C15.6186 18.7101 15.9163 19 16.2822 19H18.3208C18.7039 19 19.0133 18.683 18.9996 18.3001Z" fill="#FCEE21"/>
</svg>
