<svg width="24" height="12" viewBox="0 0 24 12" fill="none" xmlns="http://www.w3.org/2000/svg">
<mask id="path-1-inside-1" fill="white">
<path d="M24 12C24 8.8174 22.7357 5.76516 20.4853 3.51472C18.2348 1.26428 15.1826 2.40279e-07 12 0C8.8174 -2.40279e-07 5.76516 1.26428 3.51472 3.51472C1.26428 5.76515 4.80559e-07 8.8174 0 12L12 12H24Z"/>
</mask>
<path d="M24 12C24 8.8174 22.7357 5.76516 20.4853 3.51472C18.2348 1.26428 15.1826 2.40279e-07 12 0C8.8174 -2.40279e-07 5.76516 1.26428 3.51472 3.51472C1.26428 5.76515 4.80559e-07 8.8174 0 12L12 12H24Z" stroke="#FCEE21" stroke-width="6" mask="url(#path-1-inside-1)"/>
</svg>
