<svg width="23" height="23" viewBox="0 0 23 23" fill="none" xmlns="http://www.w3.org/2000/svg">
<path fill-rule="evenodd" clip-rule="evenodd" d="M12.6813 22.9401C18.4776 22.3486 23 17.4524 23 11.5C23 5.14873 17.8513 0 11.5 0C5.14873 0 0 5.14873 0 11.5C0 15.4141 1.95544 18.8715 4.94271 20.9486C4.95052 20.8532 4.96314 20.7622 4.99493 20.6861L5.42721 19.8797C5.58897 19.7249 5.60761 19.6603 5.63058 19.5807C5.64504 19.5305 5.66123 19.4744 5.716 19.386C5.73698 19.3526 5.75874 19.321 5.77998 19.2901C5.88405 19.139 5.97584 19.0058 5.90434 18.7552C5.79315 18.3778 5.89839 17.9062 6.00045 17.4489C6.06302 17.1685 6.12439 16.8934 6.13394 16.6488C6.11071 16.6245 6.06894 16.611 6.02283 16.5961C5.93363 16.5674 5.8282 16.5334 5.80928 16.4056C5.75008 16.0125 5.95636 15.3085 6.08192 15.2463C6.1085 15.2324 6.13713 15.2317 6.16623 15.2311C6.19803 15.2304 6.23039 15.2297 6.26129 15.2116C6.26129 15.1277 6.23814 14.9356 6.20992 14.7012C6.13846 14.108 6.03446 13.2446 6.19134 13.1856C6.26781 13.1569 6.39903 13.1357 6.50996 13.1177C6.59678 13.1037 6.67118 13.0916 6.69716 13.0796C6.69716 13.0083 6.64694 12.8583 6.58954 12.851C6.49268 12.8364 6.29537 12.7998 6.13752 12.7614C5.65501 12.6481 6.10165 10.708 6.10882 10.6989C6.16693 10.6189 6.31749 10.6208 6.47475 10.6228C6.67674 10.6255 6.88979 10.6282 6.93215 10.4575C7.0049 10.3627 7.00647 10.1731 7.00864 9.91151C7.01262 9.43148 7.01861 8.70927 7.47026 7.88669C7.70703 7.45883 8.16264 7.02548 8.69178 7.20833C8.75543 7.23039 8.78272 7.27755 8.80538 7.31671C8.84658 7.38791 8.87249 7.43269 9.07384 7.25221C9.06621 7.10174 9.02901 6.95438 8.96443 6.81886C8.44425 5.23905 10.2039 4.38332 11.4362 5.28659C11.5511 5.32501 11.6599 5.38046 11.759 5.45115C11.775 5.53448 11.8062 5.6331 11.8402 5.74065C11.9518 6.09326 12.0938 6.54188 11.8272 6.86274C11.6759 6.89737 11.532 6.9593 11.4021 7.04559C11.3984 7.169 11.4129 7.29227 11.4451 7.41129C11.4497 7.42619 11.455 7.43936 11.4598 7.45128C11.4798 7.50076 11.491 7.52839 11.3985 7.56671C11.3885 7.56671 11.3924 7.59337 11.3958 7.61572C11.3972 7.62542 11.3985 7.63431 11.3985 7.63985C11.6675 7.67112 11.9397 7.62488 12.1842 7.50637H12.4137V7.21198H12.5232V6.9816H12.6326V7.3802H12.916V7.50637H17.1635V7.73127H17.3429V6.90845H17.5007V7.57768H17.8595V7.95983H18.9841V7.85378H19.1635V7.90315H19.7016V8.22131H19.1635V8.27251H18.9841V8.15731H17.8595V8.27251H17.3644V8.19388H17.1527V8.4261L15.298 8.43341C15.2616 8.45313 15.2222 8.46671 15.1815 8.47364C15.1129 8.57326 15.0789 8.63811 15.0525 8.68838C14.9946 8.79866 14.9735 8.83882 14.7061 9.02219C14.6888 9.3813 14.7356 9.74064 14.8442 10.0827C14.8464 10.0879 14.8475 10.0935 14.8475 10.0992C14.8475 10.1048 14.8464 10.1104 14.8442 10.1156C14.8378 10.1249 14.8282 10.1314 14.8173 10.1339C14.7717 10.1437 14.7162 10.1571 14.6622 10.1701C14.6057 10.1836 14.5509 10.1968 14.5106 10.2052C14.5343 10.3873 14.5343 10.5717 14.5106 10.7538C14.4442 11.1067 13.6227 11.8783 13.4254 11.9167C13.2306 11.9561 13.0181 11.8442 12.7379 11.6966C12.6286 11.639 12.509 11.576 12.3761 11.5144C12.3281 11.493 12.2388 11.4399 12.1336 11.3775C11.9515 11.2693 11.7216 11.1327 11.5761 11.0829C11.3842 11.0189 11.194 11.4925 11.4308 11.6186C11.4407 11.6239 11.4512 11.6294 11.462 11.6351C11.5711 11.6923 11.721 11.7709 11.7716 11.9039C11.9366 12.3391 11.7465 14.0176 11.4128 14.3559C11.3365 14.3559 11.2657 14.3219 11.1996 14.2902C11.126 14.2548 11.0582 14.2223 10.9949 14.2425C10.7815 14.3614 10.9178 15.0269 10.9949 15.144C11.8197 16.0088 12.0657 16.7326 12.2722 17.3402C12.3948 17.7012 12.5036 18.0212 12.7115 18.3054C12.8545 18.3054 12.8646 18.3918 12.8803 18.5248C12.8925 18.6288 12.9081 18.7613 12.9931 18.9033C13.0188 19.0872 13.0041 19.2745 12.9501 19.4519V19.8669L12.907 19.9968V20.3624C12.8874 20.4535 12.8668 20.5568 12.8467 20.658C12.8265 20.7598 12.8066 20.8595 12.7886 20.9421C12.7542 21.0978 12.7947 21.2382 12.8343 21.3754C12.8834 21.5459 12.9311 21.7113 12.8317 21.8947C12.8317 22.0659 12.8317 22.0659 12.7615 22.1574C12.7477 22.1753 12.7312 22.1968 12.7115 22.2238C12.7115 22.3215 12.7046 22.4521 12.6971 22.593C12.6911 22.7059 12.6848 22.8255 12.6813 22.9401ZM11.4675 23C11.4629 22.9284 11.458 22.8575 11.4534 22.7903C11.4425 22.6297 11.433 22.4903 11.4308 22.414C11.2102 22.2494 11.1671 21.7466 11.1671 21.4705C11.1142 21.2255 11.0883 20.9753 11.09 20.7245C11.0516 20.5661 11.04 20.4023 11.0559 20.2399C11.074 20.1809 11.1172 20.1397 11.1583 20.1005C11.1949 20.0657 11.2299 20.0324 11.2442 19.9894V19.6768C11.3016 19.3495 11.2837 19.1977 11.09 19.0021C11.0588 19.0021 11.0294 19.0022 11.0016 19.0023C10.5981 19.004 10.524 19.0043 10.2756 18.6126C10.2708 18.6049 10.264 18.594 10.2554 18.5803C10.1165 18.3581 9.51303 17.3931 9.45052 17.3656C9.14988 17.2318 9.04191 17.1971 8.96921 17.1262C8.90572 17.0643 8.86913 16.9748 8.75456 16.7676C8.63049 16.8065 8.523 16.8871 8.44963 16.9962C8.24873 17.3034 7.89178 18.2999 7.78954 18.6418C7.765 18.7274 7.76212 18.8172 7.75932 18.9049C7.75577 19.0158 7.75233 19.1233 7.70524 19.2142C7.67084 19.2773 7.595 19.3173 7.52636 19.3536C7.46971 19.3835 7.41797 19.4108 7.39851 19.4464C7.33432 19.5653 7.30677 19.6423 7.28585 19.7008C7.24244 19.822 7.22754 19.8637 6.9734 20.0351C6.92429 20.141 6.88467 20.2512 6.85501 20.3643L6.77071 20.4868C6.73361 20.5678 6.76353 20.6891 6.78903 20.7924C6.80669 20.864 6.82224 20.927 6.81196 20.9622C6.74521 21.1889 6.66616 21.4118 6.57519 21.6296C6.54386 21.7024 6.51888 21.7794 6.49806 21.8581C8.00127 22.5854 9.6868 22.995 11.4675 23ZM13.2371 9.14835H13.8128C13.89 9.03498 13.9689 8.79911 13.8487 8.71683C13.7841 8.67111 13.3178 8.65832 13.4254 8.87225C13.4954 9.01487 13.3949 9.04595 13.2371 9.04595V9.14835ZM13.7232 9.29097H13.0236C13.0756 9.48232 13.1654 9.66088 13.2873 9.81575C13.4073 9.81575 13.5812 9.52608 13.6786 9.364C13.6962 9.33465 13.7113 9.30947 13.7232 9.29097Z" fill="#C4C4C4"/>
</svg>
