<svg width="23" height="23" viewBox="0 0 23 23" fill="none" xmlns="http://www.w3.org/2000/svg">
<path d="M23 5.34133C22.91 1.06066 22.9044 1.98596 22.9921 0.651801C22.9973 0.572702 22.9379 0.504355 22.8592 0.498951C16.5191 0.0629499 16.2789 0.0126779 15.7876 0.0126779C7.13844 0.0119805 11.6792 -0.130118 0.134485 0.554569C0.0560405 0.559277 -0.00390552 0.626694 0.000198775 0.705502C0.744233 15.0573 0.717064 12.716 0.336983 22.2811C0.334266 22.3498 0.380338 22.4107 0.446932 22.4265C1.31097 22.6319 1.15784 22.5511 3.1734 22.5525C3.1767 22.5535 6.95057 22.1392 6.95398 22.1389C6.97178 22.1418 12.1726 23 12.1907 23C12.1947 23 12.1986 22.9998 12.2026 22.9995C18.2979 22.4859 16.5508 22.61 20.4831 22.3909L22.7921 22.8605C22.8819 22.8786 22.9643 22.8088 22.9633 22.7181C22.9133 18.0443 23 5.34133 23 5.34133ZM13.6272 5.00065C13.6444 4.99646 13.669 4.99042 13.6996 4.98222L15.3431 4.60986C16.1849 4.39779 16.3093 4.34612 17.0297 4.00561C17.3623 4.12161 18.2743 4.62898 18.5055 4.92027C18.6583 5.11311 18.6482 5.156 18.6002 5.36249C18.5909 5.40213 18.5804 5.44775 18.5693 5.50162C18.5685 5.50517 18.5679 5.50883 18.5674 5.51243L18.206 8.35579C17.8484 8.36905 17.8186 8.3415 17.7197 8.24996C17.6789 8.21207 17.628 8.16499 17.5384 8.10461C16.9947 7.73765 15.215 6.41378 14.6531 5.95808L13.5484 5.06574L13.5573 5.05708C13.5692 5.04511 13.5799 5.02901 13.5869 5.01361C13.5925 5.00925 13.6143 5.00384 13.6272 5.00065ZM16.1883 19.3168C16.156 19.2843 2.37798 4.5994 2.36786 4.57912L3.57158 3.65074L20.3928 14.849C20.2538 15.2495 20.1983 15.709 20.1147 16.0907C19.8192 17.4386 19.4392 18.0284 18.8449 19.3091C17.9944 19.3431 16.2469 19.3365 16.1883 19.3168ZM3.65482 15.3438C3.80968 14.9696 4.02259 14.3676 4.20156 14.0627C5.08138 14.6154 8.51835 18.0874 8.81728 18.5561C8.65172 18.6179 7.94057 18.7241 6.75905 19.1987C6.01045 19.4989 5.30359 19.7838 4.62083 19.5508C4.55273 19.5277 4.37122 19.3729 4.10207 19.1393C3.61048 18.7126 3.16531 18.4053 2.90645 18.2516C2.46492 17.9896 2.53371 18.0449 3.65482 15.3438Z" fill="#E8385C"/>
</svg>
