<svg width="34" height="30" viewBox="0 0 34 30" fill="none" xmlns="http://www.w3.org/2000/svg">
<path d="M1.21429 5.5102H32.7857C33.4564 5.5102 34 4.96202 34 4.28571V1.22449C34 0.548189 33.4564 0 32.7857 0H1.21429C0.543621 0 0 0.548189 0 1.22449V4.28571C0 4.96202 0.543621 5.5102 1.21429 5.5102ZM1.21429 17.7551H32.7857C33.4564 17.7551 34 17.2069 34 16.5306V13.4694C34 12.7931 33.4564 12.2449 32.7857 12.2449H1.21429C0.543621 12.2449 0 12.7931 0 13.4694V16.5306C0 17.2069 0.543621 17.7551 1.21429 17.7551ZM1.21429 30H32.7857C33.4564 30 34 29.4518 34 28.7755V25.7143C34 25.038 33.4564 24.4898 32.7857 24.4898H1.21429C0.543621 24.4898 0 25.038 0 25.7143V28.7755C0 29.4518 0.543621 30 1.21429 30Z" fill="#1144D8"/>
</svg>
