<svg width="118" height="21" viewBox="0 0 118 21" fill="none" xmlns="http://www.w3.org/2000/svg">
<path fill-rule="evenodd" clip-rule="evenodd" d="M69.2648 18.2904L61.0632 0L0 0V18.2904H69.2648Z" fill="#FCEE21"/>
<path d="M3.49792 8.80634C3.49792 12.0161 6.11113 14.2257 9.50301 14.2257C12.5055 14.2257 14.0085 12.5944 14.6182 11.174L11.7288 9.91117C11.3858 10.8172 10.4658 11.4117 9.44914 11.3844C8.744 11.3767 8.07263 11.0974 7.58995 10.6109C7.10727 10.1244 6.85497 9.47277 6.89127 8.80634C6.85497 8.13991 7.10727 7.48827 7.58995 7.00177C8.07263 6.51528 8.744 6.23596 9.44914 6.22827C10.4646 6.20236 11.3827 6.79661 11.7254 7.70152L14.6148 6.43867C13.9507 5.01825 12.5055 3.38696 9.50301 3.38696C6.11113 3.38696 3.49792 5.54424 3.49792 8.80634ZM52.2046 10.5428H53.3721L54.929 14.0153H58.7097L56.7082 10.3324C58.0213 9.7878 58.8406 8.53037 58.765 7.17552C58.765 5.22911 57.3752 3.59782 54.8173 3.59782H48.8686V14.0158H52.2046V10.5428ZM38.1929 3.54499V13.9625H46.5889V11.4368H41.5848V9.91117H46.4777V7.49112H41.5848V6.07024H46.5889V3.54453L38.1929 3.54499ZM26.4056 3.54499V13.9625H33.1888C35.4127 13.9625 36.47 12.5944 36.47 11.1212C36.5438 9.8835 35.6425 8.78362 34.3573 8.54311C35.51 8.29096 36.3063 7.29363 36.2477 6.17544C36.2477 4.96541 35.2467 3.49216 32.9665 3.49216H26.4041L26.4056 3.54499ZM25.7386 3.54499H21.9578L19.9563 7.07032L17.8994 3.54499H14.0624L18.1761 9.91163V14.0158H21.569V9.91117L25.7386 3.54499ZM32.0772 7.54395H29.6863V5.96504H32.0772C32.5214 5.98039 32.8691 6.33241 32.8553 6.75287C32.8722 6.9576 32.7976 7.15964 32.6497 7.3099C32.5018 7.46016 32.2941 7.54489 32.0772 7.54349V7.54395ZM54.2061 6.12122C54.4864 6.1072 54.761 6.19915 54.9696 6.3768C55.1782 6.55446 55.3036 6.80327 55.3183 7.06847C55.3126 7.33666 55.1898 7.59064 54.9791 7.77009C54.7684 7.94954 54.4886 8.03846 54.2061 8.01573H52.2046V6.12122H54.2061ZM32.1883 11.5948H29.6863V9.91117H32.1883C32.6715 9.9219 33.0573 10.2956 33.0573 10.753C33.0573 11.2104 32.6715 11.5841 32.1883 11.5948Z" fill="black"/>
<path fill-rule="evenodd" clip-rule="evenodd" d="M65.7665 3.38696L74.0991 21H109.208L117.54 3.38696H65.7665Z" fill="black"/>
<path d="M102.481 9.40214H99.1495V6.77441H109.144V9.40214H105.813V17.6132H102.481V9.40214ZM77.6603 6.77441H84.214C86.4907 6.77441 87.4908 8.25221 87.4908 9.56607C87.5494 10.7294 86.7542 11.767 85.603 12.0294C86.8673 12.2726 87.763 13.3882 87.7129 14.6571C87.7129 16.1899 86.6579 17.6132 84.4923 17.6132H77.7161V6.77441H77.6603ZM83.3244 10.9349C83.7777 10.8916 84.1184 10.5076 84.1015 10.0588C84.0924 9.63946 83.7498 9.30164 83.3244 9.29269H80.9372V10.9349H83.3244ZM83.4354 15.1499C83.7578 15.1573 84.0589 14.992 84.2223 14.718C84.3857 14.4439 84.3857 14.1041 84.2223 13.8301C84.0589 13.556 83.7578 13.3908 83.4354 13.3982H80.9372V15.1499H83.4359H83.4354ZM89.3767 6.77441H97.7058V9.40214H92.7083V10.8799H97.5947V13.3982H92.7083V14.9855H97.7058V17.6132H89.3767V6.77441Z" fill="#FCEE21"/>
</svg>
