<svg width="24" height="24" viewBox="0 0 24 24" fill="none" xmlns="http://www.w3.org/2000/svg">
<path d="M12.0024 0.5C12.6846 0.5 13.4502 1.04754 14.1691 2.30519C14.8069 3.42099 15.3395 4.98669 15.6905 6.85484H8.31435C8.66532 4.98669 9.19798 3.42099 9.83578 2.30519C10.5547 1.04754 11.3202 0.5 12.0024 0.5ZM16.0293 14.5968H7.97073C7.89733 13.7597 7.85632 12.8951 7.85632 12C7.85632 11.1049 7.89733 10.2403 7.97073 9.40323H16.0293C16.1027 10.2403 16.1437 11.1049 16.1437 12C16.1437 12.8951 16.1027 13.7597 16.0293 14.5968ZM16.5894 1.45862C19.0641 2.53448 21.0843 4.45451 22.2899 6.85484H18.2691C17.9245 4.83732 17.3669 2.96247 16.5894 1.45862ZM5.73501 6.85484H1.71401C2.91639 4.45542 4.93812 2.53556 7.41022 1.45942C6.63317 2.96305 6.07643 4.83751 5.73501 6.85484ZM18.5856 14.5968C18.6572 13.7415 18.6972 12.8713 18.6972 12C18.6972 11.1287 18.6572 10.2585 18.5856 9.40323H23.1973C23.3914 10.2418 23.5 11.106 23.5 12C23.5 12.8946 23.3912 13.7588 23.1941 14.5968H18.5856ZM0.807282 9.40323H5.41928C5.34764 10.2585 5.30762 11.1287 5.30762 12C5.30762 12.8718 5.34769 13.742 5.41658 14.5968H0.807282C0.61203 13.7571 0.5 12.8929 0.5 12C0.5 11.1071 0.61203 10.2429 0.807282 9.40323ZM12.0024 23.5C11.3202 23.5 10.5547 22.9525 9.83578 21.6948C9.19798 20.579 8.66532 19.0133 8.31435 17.1452H15.6905C15.3395 19.0133 14.8069 20.579 14.1691 21.6948C13.4502 22.9525 12.6846 23.5 12.0024 23.5ZM18.274 17.1452H22.2947C21.0889 19.5447 19.0667 21.4645 16.5947 22.5406C17.3719 21.0368 17.9294 19.1623 18.274 17.1452ZM5.73571 17.1452C6.08034 19.1627 6.63795 21.0375 7.41543 22.5414C4.94077 21.4655 2.92054 19.5455 1.71495 17.1452H5.73571Z" stroke="#1144D8"/>
</svg>
