<svg width="34" height="12" viewBox="0 0 34 12" fill="none" xmlns="http://www.w3.org/2000/svg">
<path d="M1 3H11.4225L8.59188 9H1V3Z" stroke="#0E3AB6" stroke-width="2"/>
<path d="M23.5668 11L28.2097 1H33V11H23.5668Z" stroke="#0E3AB6" stroke-width="2"/>
<path d="M16.6413 7.90533H15.6785L14 4.09467H14.9543L16.1556 6.95069L17.357 4.09467H18.3198L16.6413 7.90533Z" fill="#0E3AB6"/>
<path d="M20.2874 8C19.549 8 18.9611 7.80276 18.5237 7.40828L18.9327 6.80868C19.086 6.95595 19.2934 7.08218 19.5547 7.18738C19.816 7.29257 20.0744 7.34517 20.33 7.34517C20.5913 7.34517 20.7901 7.29783 20.9264 7.20316C21.0684 7.10848 21.1394 6.98488 21.1394 6.83235C21.1394 6.6956 21.0542 6.5904 20.8838 6.51677C20.7134 6.43787 20.5061 6.37738 20.2619 6.33531C20.0176 6.28797 19.7734 6.23274 19.5291 6.16963C19.2849 6.10125 19.0775 5.98291 18.9071 5.8146C18.7367 5.64629 18.6515 5.42801 18.6515 5.15976C18.6515 4.83366 18.7964 4.56016 19.086 4.33925C19.3757 4.11308 19.7705 4 20.2704 4C20.9009 4 21.4348 4.17883 21.8722 4.53649L21.4973 5.12032C21.3667 4.98356 21.1934 4.87311 20.9776 4.78895C20.7617 4.7048 20.5288 4.66272 20.2789 4.66272C20.046 4.66272 19.8586 4.70743 19.7165 4.79684C19.5802 4.881 19.5121 4.99145 19.5121 5.12821C19.5121 5.2334 19.5717 5.32018 19.691 5.38856C19.816 5.45168 19.9693 5.49901 20.1511 5.53057C20.3385 5.56213 20.5402 5.60684 20.756 5.66469C20.9719 5.71729 21.1707 5.78041 21.3525 5.85404C21.5399 5.92768 21.6933 6.04865 21.8126 6.21696C21.9375 6.38001 22 6.57988 22 6.81657C22 7.16371 21.8495 7.44773 21.5484 7.66864C21.2474 7.88955 20.827 8 20.2874 8Z" fill="#0E3AB6"/>
</svg>
