<svg width="26" height="18" viewBox="0 0 26 18" fill="none" xmlns="http://www.w3.org/2000/svg">
<path d="M11.35 4.5C11.35 6.42438 9.77285 8 7.8 8C5.82715 8 4.25 6.42438 4.25 4.5C4.25 2.57562 5.82715 1 7.8 1C9.77285 1 11.35 2.57562 11.35 4.5ZM7.8 11.9286C8.87871 11.9286 9.88979 11.6869 10.8006 11.2857H10.92C12.9619 11.2857 14.6 12.9216 14.6 14.9143V16.0714C14.6 16.5735 14.1847 17 13.65 17H1.95C1.41528 17 1 16.5735 1 16.0714V14.9143C1 12.9216 2.63809 11.2857 4.68 11.2857H4.80015C5.71239 11.6863 6.71997 11.9286 7.8 11.9286ZM22.4 5.14286C22.4 6.70965 21.1113 8 19.5 8C17.8887 8 16.6 6.70965 16.6 5.14286C16.6 3.57607 17.8887 2.28571 19.5 2.28571C21.1113 2.28571 22.4 3.57607 22.4 5.14286ZM19.5 11.6071C20.206 11.6071 20.8597 11.4757 21.4562 11.2857C23.4262 11.289 25 12.8634 25 14.7857C25 15.2878 24.5847 15.7143 24.05 15.7143H17.9V14.9143C17.9 13.6038 17.5223 12.3882 16.8839 11.3529C17.0985 11.3093 17.3187 11.2861 17.5438 11.2857C18.1403 11.4757 18.794 11.6071 19.5 11.6071Z" stroke="#FCEE21" stroke-width="2"/>
</svg>
