<svg width="34" height="24" viewBox="0 0 34 24" fill="none" xmlns="http://www.w3.org/2000/svg">
<path d="M10.2 12C13.4884 12 16.15 9.31607 16.15 6C16.15 2.68393 13.4884 0 10.2 0C6.91156 0 4.25 2.68393 4.25 6C4.25 9.31607 6.91156 12 10.2 12ZM14.28 13.7143H13.8391C12.7341 14.25 11.5069 14.5714 10.2 14.5714C8.89312 14.5714 7.67125 14.25 6.56094 13.7143H6.12C2.74125 13.7143 0 16.4786 0 19.8857V21.4286C0 22.8482 1.14219 24 2.55 24H17.85C19.2578 24 20.4 22.8482 20.4 21.4286V19.8857C20.4 16.4786 17.6587 13.7143 14.28 13.7143ZM25.5 12C28.3156 12 30.6 9.69643 30.6 6.85714C30.6 4.01786 28.3156 1.71429 25.5 1.71429C22.6844 1.71429 20.4 4.01786 20.4 6.85714C20.4 9.69643 22.6844 12 25.5 12ZM28.05 13.7143H27.8481C27.1097 13.9714 26.3288 14.1429 25.5 14.1429C24.6712 14.1429 23.8903 13.9714 23.1519 13.7143H22.95C21.8662 13.7143 20.8675 14.0304 19.9909 14.5393C21.2872 15.9482 22.1 17.8179 22.1 19.8857V21.9429C22.1 22.0607 22.0734 22.1732 22.0681 22.2857H31.45C32.8578 22.2857 34 21.1339 34 19.7143C34 16.3982 31.3384 13.7143 28.05 13.7143Z" fill="#FCEE21"/>
</svg>
