<svg width="26" height="28" viewBox="0 0 26 28" fill="none" xmlns="http://www.w3.org/2000/svg">
<path d="M24.4021 4.57643L14.0021 0.201C13.6853 0.0683033 13.3457 0 13.0027 0C12.6597 0 12.3201 0.0683033 12.0033 0.201L1.60333 4.57643C0.63375 4.98115 0 5.93828 0 6.99932C0 17.8558 6.20208 25.3597 11.9979 27.799C12.6371 28.067 13.3575 28.067 13.9967 27.799C18.6388 25.8465 26 19.1028 26 6.99932C26 5.93828 25.3663 4.98115 24.4021 4.57643ZM13.0054 24.408L13 3.57008L22.5279 7.57906C22.3492 15.8596 18.0808 21.8594 13.0054 24.408Z" fill="white"/>
</svg>
