<svg width="20" height="20" viewBox="0 0 20 20" fill="none" xmlns="http://www.w3.org/2000/svg">
<path fill-rule="evenodd" clip-rule="evenodd" d="M19.2635 14.0579C18.924 13.4639 18.2734 12.7002 17.3399 11.8233L17.3117 11.795H17.2834C16.8591 11.3707 16.5762 11.0878 16.463 10.9464C16.265 10.6918 16.2085 10.4089 16.3216 10.1261C16.4065 9.92804 16.7176 9.47545 17.2268 8.79656C17.5097 8.45712 17.736 8.17425 17.8774 7.94795C19.0654 6.39217 19.5746 5.40212 19.4049 4.97782L19.3483 4.86467C19.2917 4.80809 19.2069 4.75152 19.0372 4.69495C18.8674 4.66666 18.6411 4.63837 18.3866 4.66666L15.473 4.69495C15.4164 4.69495 15.3598 4.69495 15.275 4.69495L15.1336 4.72323L15.077 4.75152L15.0487 4.77981C15.0204 4.80809 14.9638 4.83638 14.9355 4.89296C14.9073 4.94953 14.8507 5.0061 14.8224 5.06268C14.5112 5.883 14.1435 6.64675 13.7475 7.35393C13.4929 7.77823 13.2666 8.11767 13.0686 8.42883C12.8423 8.73999 12.6726 8.96628 12.5311 9.10772C12.3897 9.24915 12.2766 9.39059 12.1634 9.47545C12.0503 9.56031 11.9371 9.5886 11.8805 9.5886C11.824 9.56031 11.7674 9.56031 11.7108 9.53202C11.626 9.47545 11.5411 9.39059 11.4845 9.27744C11.428 9.19258 11.3997 9.05115 11.3714 8.88142C11.3431 8.73999 11.3431 8.59855 11.3431 8.48541C11.3431 8.37226 11.3431 8.20254 11.3431 8.00453C11.3431 7.77823 11.3431 7.6368 11.3431 7.58022C11.3431 7.32564 11.3714 7.04277 11.3714 6.73161C11.3714 6.44874 11.3997 6.19416 11.3997 6.02444C11.3997 5.85471 11.3997 5.6567 11.3997 5.4587C11.3997 5.26069 11.3997 5.11925 11.3714 5.0061C11.3431 4.89296 11.3148 4.77981 11.2582 4.69495C11.2017 4.5818 11.1451 4.49694 11.0602 4.44036C10.9754 4.38379 10.8622 4.32722 10.7208 4.29893C10.353 4.21407 9.90045 4.18578 9.363 4.18578C8.09009 4.15749 7.29805 4.24235 6.93032 4.41208C6.78888 4.49694 6.64745 4.5818 6.5343 4.72323C6.42115 4.86467 6.42115 4.94953 6.50601 4.94953C6.90203 5.03439 7.1849 5.17583 7.35462 5.40212L7.4112 5.51527C7.46777 5.60013 7.52434 5.76985 7.55263 5.99615C7.60921 6.19416 7.63749 6.44874 7.63749 6.73161C7.69407 7.21249 7.69407 7.6368 7.63749 7.97624C7.60921 8.34397 7.58092 8.59855 7.55263 8.79656C7.52434 8.99457 7.46777 9.16429 7.4112 9.27744C7.35462 9.39059 7.32634 9.47545 7.29805 9.50374C7.26976 9.53202 7.26976 9.56031 7.24147 9.56031C7.15661 9.5886 7.07175 9.61689 6.9586 9.61689C6.87374 9.61689 6.7606 9.56031 6.61916 9.47545C6.50601 9.3623 6.36458 9.24915 6.19486 9.07943C6.05342 8.90971 5.91198 8.68341 5.71398 8.37226C5.54425 8.08939 5.34624 7.72166 5.14824 7.32564L4.97851 7.04277C4.89365 6.84476 4.75222 6.56189 4.5825 6.22244C4.38449 5.85471 4.24305 5.51527 4.10162 5.17583C4.04504 5.03439 3.96018 4.92124 3.87532 4.83638L3.81875 4.80809C3.79046 4.77981 3.73389 4.75152 3.64902 4.72323C3.56416 4.69495 3.50759 4.66666 3.42273 4.66666H0.650601C0.367731 4.66666 0.169722 4.75152 0.084861 4.86467L0.028287 4.92124C0 4.97782 0 5.0061 0 5.09096C0 5.17583 0.028287 5.26069 0.056574 5.37383C0.452592 6.30731 0.905184 7.24078 1.38606 8.11767C1.86694 8.99457 2.26296 9.70175 2.63069 10.2675C2.97014 10.8049 3.33787 11.3141 3.7056 11.795C4.04504 12.2476 4.29963 12.5587 4.41277 12.7002C4.52592 12.8416 4.63907 12.9265 4.69564 13.0113L4.95023 13.2376C5.11995 13.4073 5.34624 13.6054 5.6574 13.8317C5.96856 14.0579 6.308 14.2842 6.70402 14.5105C7.07175 14.7085 7.52434 14.9066 8.03351 15.048C8.54268 15.1611 9.02356 15.2177 9.50444 15.1894H10.6642C10.9188 15.1894 11.0885 15.1046 11.2017 14.9914L11.2582 14.9348C11.2865 14.8783 11.3148 14.8217 11.3148 14.7368C11.3431 14.652 11.3714 14.5671 11.3714 14.454C11.3431 14.1711 11.3714 13.9165 11.428 13.6902C11.4845 13.4356 11.5411 13.2659 11.5977 13.1528C11.6542 13.0396 11.7391 12.9265 11.824 12.8416C11.9088 12.785 11.9654 12.7285 11.9937 12.7002C12.022 12.7002 12.0503 12.6719 12.0786 12.6719C12.22 12.6153 12.418 12.6719 12.6443 12.8416C12.8706 12.983 13.0686 13.181 13.2666 13.4073C13.4646 13.6619 13.6909 13.9165 13.9455 14.1994C14.2284 14.4823 14.4547 14.7085 14.6527 14.85L14.8507 14.9631C14.9921 15.048 15.1618 15.1329 15.3881 15.1894C15.6144 15.246 15.7842 15.2743 15.9539 15.246L18.5563 15.1894C18.8109 15.1894 19.0089 15.1611 19.1503 15.0763C19.2917 14.9914 19.3766 14.9066 19.4049 14.7934C19.4332 14.7085 19.4332 14.5954 19.4049 14.454C19.3766 14.3125 19.3483 14.2277 19.32 14.1994C19.32 14.1428 19.2917 14.0862 19.2635 14.0579Z" fill="#0B2F96"/>
</svg>
