<svg width="22" height="22" viewBox="0 0 22 22" fill="none" xmlns="http://www.w3.org/2000/svg">
<path fill-rule="evenodd" clip-rule="evenodd" d="M19.4125 6.53212C19.2276 5.60775 18.4265 4.92987 17.5021 4.71419C16.1156 4.43688 13.5274 4.22119 10.7234 4.22119C7.95033 4.22119 5.33128 4.43688 3.91391 4.71419C2.98954 4.92987 2.18842 5.57693 2.00355 6.53212C1.84949 7.61055 1.66461 9.08954 1.66461 10.9999C1.66461 12.8795 1.84949 14.3584 2.06517 15.4369C2.21923 16.3612 3.02035 17.0391 3.97554 17.2548C5.45453 17.5321 7.98114 17.7478 10.7851 17.7478C13.5582 17.7478 16.1156 17.5321 17.5946 17.2548C18.519 17.0391 19.3201 16.3921 19.5049 15.4369C19.659 14.3584 19.8747 12.8486 19.9055 10.9999C19.8131 9.08954 19.6282 7.61055 19.4125 6.53212ZM8.44332 13.9579V8.01111L13.6198 10.9999L8.44332 13.9579Z" fill="#0B2F96"/>
</svg>
