<svg width="26" height="26" viewBox="0 0 26 26" fill="none" xmlns="http://www.w3.org/2000/svg">
<path d="M26 6.03803C25.8983 1.19901 25.8919 2.24499 25.991 0.736818C25.9969 0.647402 25.9298 0.570141 25.8409 0.564031C18.6738 0.0711608 18.4022 0.0143315 17.8468 0.0143315C8.06954 0.0135432 13.2026 -0.14709 0.152026 0.626904C0.0633501 0.632226 -0.00441494 0.708436 0.000224702 0.797523C0.841307 17.0212 0.810594 14.3746 0.380937 25.1873C0.377865 25.265 0.429947 25.3339 0.505227 25.3518C1.48197 25.5839 1.30887 25.4925 3.58732 25.4942C3.59105 25.4953 7.85717 25.0269 7.86102 25.0265C7.88115 25.0299 13.7604 26 13.7808 26C13.7853 26 13.7898 25.9998 13.7943 25.9994C20.6845 25.4189 18.7096 25.5592 23.1548 25.3115L25.7649 25.8423C25.8665 25.8628 25.9596 25.7838 25.9585 25.6813C25.902 20.398 26 6.03803 26 6.03803ZM15.4047 5.65291C15.4241 5.64818 15.4519 5.64134 15.4865 5.63208L17.3443 5.21115C18.296 4.97142 18.4366 4.91301 19.251 4.52808C19.627 4.65922 20.6579 5.23276 20.9193 5.56205C21.092 5.78003 21.0806 5.82852 21.0263 6.06194C21.0158 6.10675 21.0039 6.15832 20.9913 6.21923C20.9905 6.22323 20.9898 6.22737 20.9893 6.23145L20.5807 9.44568C20.1765 9.46066 20.1427 9.42952 20.0309 9.32604C19.9848 9.28321 19.9274 9.22999 19.8261 9.16173C19.2114 8.74691 17.1996 7.25037 16.5643 6.73522L15.3156 5.72649L15.3256 5.7167C15.3391 5.70317 15.3512 5.68497 15.3591 5.66756C15.3654 5.66263 15.3901 5.65652 15.4047 5.65291ZM18.2998 21.8364C18.2633 21.7997 2.68815 5.19932 2.67671 5.17639L4.03743 4.12693L23.0528 16.7858C22.8956 17.2385 22.8329 17.7581 22.7384 18.1895C22.4043 19.7132 21.9747 20.38 21.303 21.8277C20.3415 21.8661 18.366 21.8587 18.2998 21.8364ZM4.13153 17.3452C4.3066 16.9222 4.54727 16.2417 4.74959 15.8969C5.74417 16.5218 9.62944 20.4466 9.96735 20.9765C9.7802 21.0463 8.9763 21.1664 7.64067 21.7029C6.79443 22.0423 5.99536 22.3642 5.22355 22.1009C5.14657 22.0748 4.94138 21.8998 4.63712 21.6357C4.08141 21.1534 3.57817 20.8059 3.28555 20.6323C2.78643 20.3361 2.86419 20.3985 4.13153 17.3452Z" fill="#FCEE21"/>
</svg>
