<svg width="26" height="23" viewBox="0 0 26 23" fill="none" xmlns="http://www.w3.org/2000/svg">
<path d="M24.9167 2.875H20.2222V1.07812C20.2222 0.480664 19.7392 0 19.1389 0H6.86111C6.26076 0 5.77778 0.480664 5.77778 1.07812V2.875H1.08333C0.482986 2.875 0 3.35566 0 3.95312V6.46875C0 8.07246 1.01562 9.72109 2.7941 10.9924C4.21597 12.0121 5.94479 12.659 7.75937 12.8656C9.17674 15.2061 10.8333 16.1719 10.8333 16.1719V19.4062H8.66667C7.07326 19.4062 5.77778 20.3361 5.77778 21.9219V22.4609C5.77778 22.7574 6.02153 23 6.31944 23H19.6806C19.9785 23 20.2222 22.7574 20.2222 22.4609V21.9219C20.2222 20.3361 18.9267 19.4062 17.3333 19.4062H15.1667V16.1719C15.1667 16.1719 16.8233 15.2061 18.2406 12.8656C20.0597 12.659 21.7885 12.0121 23.2059 10.9924C24.9799 9.72109 26 8.07246 26 6.46875V3.95312C26 3.35566 25.517 2.875 24.9167 2.875ZM4.48229 8.66094C3.3809 7.87031 2.88889 6.98984 2.88889 6.46875V5.75H5.78681C5.83194 7.21445 6.04861 8.49922 6.36458 9.62227C5.68299 9.38867 5.04653 9.06523 4.48229 8.66094ZM23.1111 6.46875C23.1111 7.19199 22.3122 8.09043 21.5177 8.66094C20.9535 9.06523 20.3125 9.38867 19.6309 9.62227C19.9469 8.49922 20.1635 7.21445 20.2087 5.75H23.1111V6.46875Z" fill="#FCEE21"/>
</svg>
