<svg width="50" height="21" viewBox="0 0 50 21" fill="none" xmlns="http://www.w3.org/2000/svg">
<path d="M47.4365 2.62178H44.2922V0H38.8622L36.2925 2.62178H33.4323L32.0053 4.07761V2.62178H29.4355V0H19.7184V2.62178H7.99975L5.42998 0H0V11.6595L2.56977 14.2813L6.85693 16.9031H10.5695V16.3169L11.9965 16.9031H18.9228L20.1477 15.4472L20.3056 16.9031H24.839L24.9337 15.4472L26.569 16.9031H30.572L30.8562 15.4472L32.2831 16.9031H36.8544L38.2813 15.4472V16.9031H40.8511L42.8526 15.4472V16.9031H45.7128L50 13.985V5.25L47.4365 2.62178ZM6.85693 6.9957H4.28716V9.9138H6.85693V13.1218H3.14434L1.14282 11.0798V1.16595H4.28716V3.78773H6.85693V6.9957ZM19.7184 11.0798L17.7169 13.1218H7.99975V3.78773H11.1441V9.90736H12.2869V3.78773H15.4312V9.90736H16.5741V3.78773H19.7184V11.0798ZM24.0056 13.1218H20.8612V3.78773H24.0056V13.1218ZM24.0056 2.62178H20.8612V1.16595H24.0056V2.62178ZM30.8625 6.9957H28.2864V9.9138H30.8562V13.1218H27.1436L25.1484 11.0798V1.16595H28.2864V3.78773H30.8562V6.9957H30.8625ZM38.8622 6.9957H35.1496V9.9138H38.8622V13.1218H34.0068L32.0053 11.0798V5.82975L34.0068 3.78773H38.8622V6.9957ZM48.8635 13.1218H45.7192V7.00215H43.1494V13.1218H40.005V1.16595H43.1494V3.78773H46.862L48.8635 5.82975V13.1218ZM25.0789 19.1963H25.4956L25.7482 20.3107L26.0008 19.1963H26.3543L26.6069 20.3107L26.8658 19.1963H27.2762L26.8216 20.9678H26.4175L26.1712 19.892L25.925 20.9678H25.5209L25.0789 19.1963ZM27.4656 19.1963H27.8823L28.1349 20.3107L28.3874 19.1963H28.741L28.9936 20.3107L29.2524 19.1963H29.6628L29.2082 20.9678H28.8041L28.5579 19.892L28.3117 20.9678H27.9076L27.4656 19.1963ZM29.8586 19.1963H30.2753L30.5278 20.3107L30.7804 19.1963H31.134L31.3865 20.3107L31.6454 19.1963H32.0558L31.6012 20.9678H31.1971L30.9509 19.892L30.7046 20.9678H30.3069L29.8586 19.1963ZM32.4347 20.9936C32.2957 20.9936 32.1884 20.884 32.1884 20.7423C32.1884 20.6006 32.2957 20.4911 32.4347 20.4911C32.5736 20.4911 32.6809 20.6071 32.6809 20.7423C32.6809 20.884 32.5672 20.9936 32.4347 20.9936ZM33.0408 19.2285C33.2681 19.2285 33.3439 19.1319 33.3439 18.8356H33.6154V19.1963H33.9311V19.5571H33.6154V20.3172C33.6154 20.5169 33.6469 20.6199 33.8427 20.6199C33.8679 20.6199 33.9058 20.6199 33.9437 20.6135V20.9807C33.8932 20.9871 33.8427 20.9871 33.7985 20.9871C33.3312 20.9871 33.2176 20.7359 33.2176 20.3043V19.5506H33.0534C33.0408 19.4475 33.0408 19.338 33.0408 19.2285ZM34.2278 19.1963H34.6445L34.8971 20.3107L35.1496 19.1963H35.5032L35.7558 20.3107L36.0146 19.1963H36.4251L35.9705 20.9678H35.5664L35.3201 19.892L35.0739 20.9678H34.6698L34.2278 19.1963ZM36.9807 18.9773C36.8418 18.9773 36.7344 18.8678 36.7344 18.7261C36.7344 18.5844 36.8418 18.4748 36.9807 18.4748C37.1196 18.4748 37.2269 18.5908 37.2269 18.7261C37.2269 18.8678 37.1196 18.9773 36.9807 18.9773ZM37.1827 20.9678H36.7786V19.1963H37.1827V20.9678ZM37.6058 19.2285C37.8331 19.2285 37.9088 19.1319 37.9088 18.8356H38.1803V19.1963H38.496V19.5571H38.1803V20.3172C38.1803 20.5169 38.2119 20.6199 38.4076 20.6199C38.4329 20.6199 38.4708 20.6199 38.5087 20.6135V20.9807C38.4581 20.9871 38.4076 20.9871 38.3634 20.9871C37.8962 20.9871 37.7825 20.7359 37.7825 20.3043V19.5506H37.6184C37.6058 19.4475 37.6058 19.338 37.6058 19.2285ZM40.1503 20.2785C40.1503 20.7294 39.9293 21 39.4999 21C39.0832 21 38.8496 20.7294 38.8496 20.3043V19.8727C38.8496 19.4411 39.0895 19.1706 39.4999 19.1706C39.9293 19.1706 40.1503 19.4411 40.1503 19.8985H39.7462C39.7462 19.6472 39.6515 19.5442 39.4999 19.5442C39.3484 19.5442 39.2474 19.6279 39.2474 19.8534V20.2721C39.2474 20.504 39.3295 20.6264 39.4999 20.6264C39.6452 20.6264 39.7462 20.5169 39.7462 20.2785H40.1503ZM40.99 20.9678H40.5859V18.5844H40.99V19.3638C40.99 19.3638 41.1163 19.1706 41.3878 19.1706C41.6719 19.1706 41.8929 19.3316 41.8929 19.8083V20.9678H41.4888V19.9693C41.4888 19.673 41.4446 19.5442 41.2363 19.5442C41.0658 19.5442 40.99 19.6344 40.99 19.8598V20.9678ZM42.5559 20.9936C42.417 20.9936 42.3096 20.884 42.3096 20.7423C42.3096 20.6006 42.417 20.4911 42.5559 20.4911C42.6948 20.4911 42.8021 20.6071 42.8021 20.7423C42.8021 20.884 42.6948 20.9936 42.5559 20.9936ZM43.162 19.2285C43.3893 19.2285 43.4651 19.1319 43.4651 18.8356H43.7366V19.1963H44.0523V19.5571H43.7366V20.3172C43.7366 20.5169 43.7682 20.6199 43.9639 20.6199C43.9891 20.6199 44.027 20.6199 44.0649 20.6135V20.9807C44.0144 20.9871 43.9639 20.9871 43.9197 20.9871C43.4525 20.9871 43.3388 20.7359 43.3388 20.3043V19.5506H43.1746C43.1683 19.4475 43.162 19.338 43.162 19.2285ZM44.349 19.1963H44.7847L45.0878 20.3687L45.3908 19.1963H45.8265L45.3088 20.9678H44.8794L44.349 19.1963Z" fill="white"/>
</svg>
