<svg width="27" height="27" viewBox="0 0 27 27" fill="none" xmlns="http://www.w3.org/2000/svg">
<path fill-rule="evenodd" clip-rule="evenodd" d="M14.8868 26.9296C21.6911 26.2352 26.9999 20.4876 26.9999 13.5C26.9999 6.04414 20.9558 0 13.5 0C6.04414 0 0 6.04414 0 13.5C0 18.0948 2.29553 22.1535 5.80234 24.5918C5.81151 24.4798 5.82632 24.3729 5.86364 24.2836L6.37111 23.337C6.561 23.1553 6.58288 23.0794 6.60984 22.986C6.62682 22.9271 6.64582 22.8612 6.71012 22.7575C6.73475 22.7182 6.76029 22.6811 6.78523 22.6449C6.90739 22.4675 7.01515 22.3111 6.93121 22.0169C6.80068 21.5739 6.92423 21.0202 7.04403 20.4834C7.11749 20.1542 7.18953 19.8314 7.20074 19.5442C7.17347 19.5157 7.12444 19.4999 7.07031 19.4824C6.9656 19.4486 6.84182 19.4087 6.81961 19.2587C6.75013 18.7972 6.99228 17.9708 7.13967 17.8979C7.17087 17.8814 7.20448 17.8807 7.23865 17.88C7.27597 17.8792 7.31397 17.8784 7.35024 17.8571C7.35024 17.7586 7.32306 17.533 7.28993 17.258C7.20604 16.5615 7.08396 15.548 7.26812 15.4788C7.35789 15.4451 7.51193 15.4201 7.64215 15.3991C7.74407 15.3826 7.83141 15.3684 7.86191 15.3543C7.86191 15.2706 7.80296 15.0946 7.73558 15.086C7.62187 15.0688 7.39025 15.0259 7.20495 14.9808C6.63852 14.8477 7.16283 12.5703 7.17126 12.5596C7.23946 12.4656 7.41621 12.4679 7.60082 12.4703C7.83794 12.4733 8.08804 12.4766 8.13776 12.2762C8.22317 12.1649 8.22502 11.9423 8.22756 11.6352C8.23223 11.0717 8.23926 10.2239 8.76946 9.25829C9.04741 8.75601 9.58225 8.2473 10.2034 8.46195C10.2781 8.48784 10.3102 8.5432 10.3368 8.58918C10.3851 8.67276 10.4155 8.72533 10.6519 8.51346C10.643 8.33683 10.5993 8.16383 10.5235 8.00475C9.91283 6.15019 11.9785 5.14564 13.4251 6.206C13.56 6.25111 13.6877 6.31619 13.8041 6.39918C13.8228 6.497 13.8594 6.61277 13.8994 6.73902C14.0304 7.15295 14.1971 7.6796 13.8841 8.05626C13.7065 8.09691 13.5375 8.16961 13.3851 8.27091C13.3808 8.41578 13.3978 8.56049 13.4356 8.7002C13.4409 8.71769 13.4472 8.73316 13.4528 8.74715C13.4764 8.80524 13.4895 8.83767 13.3809 8.88265C13.3691 8.88265 13.3738 8.91396 13.3776 8.94019C13.3793 8.95158 13.3809 8.96201 13.3809 8.96851C13.6966 9.00522 14.0161 8.95094 14.3031 8.81182H14.5727V8.46624H14.7011V8.19579H14.8296V8.66372H15.1623V8.81182H20.1485V9.07584H20.359V8.10992H20.5443V8.89553H20.9655V9.34415H22.2857V9.21965H22.4963V9.27761H23.128V9.6511H22.4963V9.7112H22.2857V9.57597H20.9655V9.7112H20.3843V9.61889H20.1358V9.8915L17.9586 9.90009C17.9157 9.92323 17.8695 9.93918 17.8217 9.94731C17.7413 10.0643 17.7013 10.1404 17.6703 10.1994C17.6023 10.3288 17.5776 10.376 17.2637 10.5913C17.2434 11.0128 17.2983 11.4347 17.4258 11.8362C17.4284 11.8423 17.4297 11.8489 17.4297 11.8555C17.4297 11.8622 17.4284 11.8687 17.4258 11.8748C17.4183 11.8858 17.407 11.8934 17.3943 11.8963C17.3407 11.9079 17.2755 11.9235 17.2121 11.9388C17.1459 11.9547 17.0815 11.9702 17.0342 11.98C17.062 12.1937 17.062 12.4103 17.0342 12.624C16.9563 13.0382 15.9919 13.944 15.7603 13.9891C15.5315 14.0354 15.2821 13.904 14.9532 13.7307C14.8248 13.6631 14.6844 13.5892 14.5284 13.5169C14.4722 13.4917 14.3673 13.4295 14.2438 13.3561C14.03 13.2291 13.7602 13.0688 13.5893 13.0103C13.364 12.9352 13.1408 13.4911 13.4188 13.6392C13.4304 13.6455 13.4427 13.6519 13.4555 13.6586C13.5835 13.7257 13.7595 13.8179 13.8188 13.9741C14.0126 14.485 13.7894 16.4554 13.3977 16.8525C13.308 16.8525 13.225 16.8126 13.1474 16.7754C13.061 16.7339 12.9814 16.6957 12.9071 16.7194C12.6565 16.859 12.8165 17.6403 12.9071 17.7777C13.8753 18.7929 14.1641 19.6426 14.4065 20.3559C14.5505 20.7797 14.6781 21.1553 14.9222 21.4889C15.09 21.4889 15.102 21.5903 15.1203 21.7465C15.1347 21.8686 15.153 22.0241 15.2528 22.1908C15.283 22.4066 15.2657 22.6266 15.2023 22.8348V23.322L15.1517 23.4744V23.9037C15.1287 24.0106 15.1045 24.1319 15.0809 24.2506C15.0572 24.3702 15.0339 24.4872 15.0128 24.5841C14.9724 24.7669 15.0199 24.9318 15.0663 25.0928C15.124 25.2929 15.18 25.4871 15.0633 25.7025C15.0633 25.9034 15.0633 25.9034 14.9809 26.0108C14.9647 26.0319 14.9454 26.0571 14.9222 26.0888C14.9222 26.2035 14.9141 26.3568 14.9053 26.5222C14.8983 26.6547 14.8908 26.7951 14.8868 26.9296ZM13.4619 26.9999C13.4564 26.9159 13.4507 26.8327 13.4453 26.7538C13.4325 26.5653 13.4213 26.4016 13.4188 26.3121C13.1598 26.1189 13.1092 25.5286 13.1092 25.2045C13.0471 24.9169 13.0167 24.6232 13.0187 24.3287C12.9736 24.1428 12.96 23.9504 12.9787 23.7599C12.9999 23.6905 13.0506 23.6423 13.0989 23.5963C13.1419 23.5554 13.1829 23.5163 13.1998 23.4658V23.0988C13.2672 22.7146 13.2461 22.5364 13.0187 22.3067C12.9821 22.3067 12.9476 22.3069 12.9149 22.307C12.4412 22.309 12.3542 22.3093 12.0627 21.8495C12.0571 21.8405 12.0491 21.8277 12.039 21.8116C11.8759 21.5508 11.1675 20.418 11.0941 20.3856C10.7412 20.2287 10.6144 20.1879 10.5291 20.1047C10.4546 20.032 10.4116 19.9269 10.2771 19.6837C10.1315 19.7293 10.0053 19.8239 9.91915 19.952C9.68332 20.3126 9.26429 21.4825 9.14427 21.8839C9.11545 21.9843 9.11208 22.0898 9.10879 22.1927C9.10462 22.3229 9.10058 22.449 9.0453 22.5557C9.00493 22.6298 8.91589 22.6768 8.83532 22.7194C8.76882 22.7545 8.70808 22.7866 8.68523 22.8283C8.60988 22.968 8.57754 23.0583 8.55297 23.127C8.50202 23.2693 8.48453 23.3182 8.18619 23.5195C8.12854 23.6437 8.08203 23.7731 8.04721 23.9059L7.94825 24.0497C7.9047 24.1448 7.93982 24.2871 7.96976 24.4085C7.99049 24.4925 8.00874 24.5665 7.99668 24.6077C7.91832 24.8739 7.82552 25.1355 7.71873 25.3912C7.68195 25.4767 7.65262 25.567 7.62818 25.6595C9.39282 26.5132 11.3715 26.9941 13.4619 26.9999ZM15.5392 10.7394H16.2151C16.3056 10.6063 16.3983 10.3294 16.2572 10.2328C16.1814 10.1791 15.6339 10.1641 15.7603 10.4152C15.8424 10.5827 15.7245 10.6192 15.5392 10.6192V10.7394ZM16.1098 10.9068H15.2886C15.3497 11.1314 15.455 11.341 15.5981 11.5228C15.739 11.5228 15.9432 11.1828 16.0575 10.9925C16.0782 10.9581 16.0959 10.9285 16.1098 10.9068Z" fill="#FCEE21"/>
</svg>
