<svg width="22" height="24" viewBox="0 0 22 24" fill="none" xmlns="http://www.w3.org/2000/svg">
<path d="M21.4107 7.5H0.589286C0.263853 7.5 0 7.24814 0 6.9375V5.25C0 4.00734 1.05531 3 2.35714 3H4.71429V0.5625C4.71429 0.251859 4.97814 0 5.30357 0H7.26786C7.59329 0 7.85714 0.251859 7.85714 0.5625V3H14.1429V0.5625C14.1429 0.251859 14.4067 0 14.7321 0H16.6964C17.0219 0 17.2857 0.251859 17.2857 0.5625V3H19.6429C20.9447 3 22 4.00734 22 5.25V6.9375C22 7.24814 21.7361 7.5 21.4107 7.5ZM0.589286 9H21.4107C21.7361 9 22 9.25186 22 9.5625V21.75C22 22.9927 20.9447 24 19.6429 24H2.35714C1.05531 24 0 22.9927 0 21.75V9.5625C0 9.25186 0.263853 9 0.589286 9ZM16.9565 13.4975L15.5732 12.1664C15.344 11.9458 14.9709 11.9444 14.7399 12.1632L9.53268 17.0937L7.27473 14.9209C7.04555 14.7004 6.67238 14.6989 6.44134 14.9177L5.04684 16.2382C4.81579 16.457 4.81427 16.8131 5.0435 17.0337L9.0998 20.9369C9.32898 21.1575 9.7021 21.1589 9.93315 20.9401L16.9532 14.293C17.1842 14.0742 17.1857 13.7181 16.9565 13.4975Z" fill="#0B2468"/>
</svg>
