<svg width="24" height="22" viewBox="0 0 24 22" fill="none" xmlns="http://www.w3.org/2000/svg">
<path d="M7.35769 1.37733C6.61352 2.70692 6.07703 4.34292 5.74304 6.09803H1.75692C2.95176 4.01374 4.93096 2.33348 7.35769 1.37733ZM1.75797 15.4324H5.74379C6.08085 17.1876 6.61825 18.824 7.36288 20.1538C4.93369 19.1979 2.95584 17.5175 1.75797 15.4324ZM12.0024 0.5C12.7113 0.5 13.4748 1.00497 14.1815 2.11407C14.8047 3.09216 15.3281 4.46153 15.6775 6.09803H8.32737C8.67673 4.46153 9.20016 3.09216 9.82337 2.11407C10.5301 1.00497 11.2935 0.5 12.0024 0.5ZM16.0338 13.0433H7.9662C7.89565 12.3084 7.85632 11.5499 7.85632 10.7652C7.85632 9.98052 7.89565 9.22202 7.9662 8.48708H16.0338C16.1044 9.22202 16.1437 9.98052 16.1437 10.7652C16.1437 11.5499 16.1044 12.3084 16.0338 13.0433ZM16.642 1.3766C19.0712 2.3325 21.049 4.01291 22.2469 6.09803H18.261C17.924 4.34277 17.3866 2.70642 16.642 1.3766ZM18.5907 13.0433C18.6591 12.2928 18.6972 11.5296 18.6972 10.7652C18.6972 10.0008 18.6591 9.23764 18.5907 8.48708H23.2074C23.3953 9.22395 23.5 9.98206 23.5 10.7652C23.5 11.5489 23.3951 12.307 23.2043 13.0433H18.5907ZM0.79717 8.48708H5.41412C5.34574 9.23764 5.30762 10.0008 5.30762 10.7652C5.30762 11.5301 5.34579 12.2933 5.41163 13.0433H0.79717C0.607997 12.3052 0.5 11.5472 0.5 10.7652C0.5 9.98322 0.607997 9.2252 0.79717 8.48708ZM12.0024 21.0304C11.2935 21.0304 10.5301 20.5254 9.82337 19.4163C9.20016 18.4382 8.67673 17.0689 8.32737 15.4324H15.6775C15.3281 17.0689 14.8047 18.4382 14.1815 19.4163C13.4748 20.5254 12.7113 21.0304 12.0024 21.0304ZM18.2659 15.4324H22.2516C21.0536 17.5168 19.0738 19.197 16.6472 20.153C17.3916 18.8234 17.9289 17.1873 18.2659 15.4324Z" stroke="white"/>
</svg>
