<svg width="174" height="31" viewBox="0 0 174 31" fill="none" xmlns="http://www.w3.org/2000/svg">
<path fill-rule="evenodd" clip-rule="evenodd" d="M102.248 27.0001L90.1409 0L0 0V27.0001H102.248Z" fill="#FCEE21"/>
<path d="M5.16357 12.9999C5.16357 17.738 9.02116 20.9999 14.0282 20.9999C18.4605 20.9999 20.6792 18.5918 21.5793 16.495L17.314 14.6308C16.8075 15.9683 15.4495 16.8459 13.9487 16.8056C12.9078 16.7942 11.9167 16.3819 11.2042 15.6637C10.4917 14.9456 10.1192 13.9836 10.1728 12.9999C10.1192 12.0161 10.4917 11.0541 11.2042 10.336C11.9167 9.61781 12.9078 9.20548 13.9487 9.19413C15.4477 9.15588 16.803 10.0331 17.3089 11.3689L21.5742 9.50471C20.5939 7.4079 18.4605 4.99982 14.0282 4.99982C9.02116 4.99982 5.16357 8.18437 5.16357 12.9999ZM77.0639 15.5632H78.7874L81.0856 20.6893H86.6667L83.7121 15.2526C85.6505 14.4487 86.8599 12.5925 86.7484 10.5925C86.7484 7.71917 84.6967 5.31109 80.9208 5.31109H72.1393V20.69H77.0639V15.5632ZM56.38 5.2331V20.6113H68.774V16.8829H61.3871V14.6308H68.6099V11.0583H61.3871V8.96084H68.774V5.23242L56.38 5.2331ZM38.9796 5.2331V20.6113H48.993C52.2759 20.6113 53.8367 18.5918 53.8367 16.417C53.9456 14.5899 52.615 12.9663 50.718 12.6113C52.4196 12.2391 53.595 10.7668 53.5085 9.11614C53.5085 7.32991 52.0308 5.15511 48.6648 5.15511H38.9775L38.9796 5.2331ZM37.995 5.2331H32.4139L29.4593 10.4372L26.423 5.2331H20.7588L26.8314 14.6315V20.69H31.8399V14.6308L37.995 5.2331ZM47.352 11.1363H43.8226V8.80555H47.352C48.0078 8.82821 48.521 9.34786 48.5007 9.96854C48.5256 10.2708 48.4155 10.569 48.1972 10.7908C47.9789 11.0126 47.6723 11.1377 47.352 11.1356V11.1363ZM80.0186 9.03609C80.4323 9.01541 80.8377 9.15114 81.1456 9.41339C81.4535 9.67565 81.6387 10.0429 81.6604 10.4344C81.6519 10.8303 81.4706 11.2052 81.1596 11.4701C80.8485 11.735 80.4355 11.8663 80.0186 11.8328H77.0639V9.03609H80.0186ZM47.5161 17.1162H43.8226V14.6308H47.5161C48.2293 14.6466 48.7988 15.1983 48.7988 15.8735C48.7988 16.5486 48.2293 17.1003 47.5161 17.1162Z" fill="black"/>
<path fill-rule="evenodd" clip-rule="evenodd" d="M97.0839 4.99982L109.384 30.9999H161.211L173.512 4.99982H97.0839Z" fill="black"/>
<path d="M151.282 13.8794H146.364V10.0003H161.118V13.8794H156.2V26.0004H151.282V13.8794ZM114.641 10.0003H124.316C127.677 10.0003 129.153 12.1818 129.153 14.1214C129.24 15.8387 128.066 17.3704 126.366 17.7577C128.233 18.1167 129.555 19.7635 129.481 21.6367C129.481 23.8993 127.924 26.0004 124.727 26.0004H114.724V10.0003H114.641ZM123.003 16.142C123.672 16.0781 124.175 15.5112 124.15 14.8488C124.136 14.2297 123.631 13.731 123.003 13.7178H119.479V16.142H123.003ZM123.167 22.3641C123.642 22.3751 124.087 22.1311 124.328 21.7266C124.569 21.322 124.569 20.8204 124.328 20.4158C124.087 20.0113 123.642 19.7673 123.167 19.7783H119.479V22.3641H123.167H123.167ZM131.937 10.0003H144.232V13.8794H136.855V16.0609H144.068V19.7783H136.855V22.1214H144.232V26.0004H131.937V10.0003Z" fill="#FCEE21"/>
</svg>
